<?xml version="1.0" encoding="utf-8"?>
<!-- Created with sK1 2.0rc3 (http://sk1project.net/) -->
<svg xmlns:rdf="http://www.w3.org/1999/02/22-rdf-syntax-ns#" xmlns="http://www.w3.org/2000/svg" xmlns:svg="http://www.w3.org/2000/svg" height="128.0" viewBox="0 0 128.0 128.0" width="128.0" version="1.1" xmlns:cc="http://creativecommons.org/ns#" xmlns:xlink="http://www.w3.org/1999/xlink" id="svg2" xmlns:dc="http://purl.org/dc/elements/1.1/">
<defs id="defs1">
	<radialGradient spreadMethod="pad" gradientUnits="userSpaceOnUse" cy="776.36084" cx="30.423372" gradientTransform="matrix(0.15536011015040443, -0.003591547655345767, 0.0008947042527181683, 0.052818899242041875, 38.51128119913214, -21.065908552215532)" r="202.82248" id="grad1">
		<stop style="stop-color:#ffffff;stop-opacity:0.392156862745;" offset="0.0" />
		<stop style="stop-color:#ffffff;stop-opacity:0.0;" offset="1.0" />
	</radialGradient>
	<linearGradient y2="7.18153045907" spreadMethod="pad" gradientUnits="userSpaceOnUse" x2="47.3176807425" y1="-1.39763182747" x1="47.3176807425" id="grad2">
		<stop style="stop-color:#000000;stop-opacity:0.596078431373;" offset="0.0" />
		<stop style="stop-color:#000000;stop-opacity:0.0;" offset="1.0" />
	</linearGradient>
	<linearGradient y2="33.1479844295" spreadMethod="pad" gradientUnits="userSpaceOnUse" x2="40.7209132194" y1="41.3997863573" x1="40.7209132194" id="grad3">
		<stop style="stop-color:#000000;stop-opacity:0.596078431373;" offset="0.0" />
		<stop style="stop-color:#000000;stop-opacity:0.0;" offset="1.0" />
	</linearGradient>
	<radialGradient spreadMethod="pad" gradientUnits="userSpaceOnUse" cy="365.37674" cx="21.305288" gradientTransform="matrix(-0.03158709426135241, -0.0004032370557279425, 0.001373366829090023, -0.14859640081124365, 88.01694260214097, 76.36761934311971)" r="202.82248" id="grad4">
		<stop style="stop-color:#000000;stop-opacity:0.596078431373;" offset="0.0" />
		<stop style="stop-color:#000000;stop-opacity:0.0;" offset="1.0" />
	</radialGradient>
	<radialGradient spreadMethod="pad" gradientUnits="userSpaceOnUse" cy="365.37674" cx="21.305288" gradientTransform="matrix(0.03158709426135241, 0.0004032370557279425, -0.001373366829090023, 0.14859640081124365, 0.021717284287362304, -36.34722114340673)" r="202.82248" id="grad5">
		<stop style="stop-color:#000000;stop-opacity:0.596078431373;" offset="0.0" />
		<stop style="stop-color:#000000;stop-opacity:0.0;" offset="1.0" />
	</radialGradient>
	<linearGradient y2="30.0755657669" spreadMethod="pad" gradientUnits="userSpaceOnUse" x2="38.5086890197" y1="2.45161093811" x1="38.5086890197" id="grad6">
		<stop style="stop-color:#f9f9f9;stop-opacity:0.882352941176;" offset="0.0" />
		<stop style="stop-color:#f9f9f9;stop-opacity:0.0;" offset="1.0" />
	</linearGradient>
	<linearGradient y2="30.5447904241" spreadMethod="pad" gradientUnits="userSpaceOnUse" x2="50.0738919165" y1="42.419144436" x1="49.5305361551" id="grad7">
		<stop style="stop-color:#f9f9f9;stop-opacity:0.882352941176;" offset="0.0" />
		<stop style="stop-color:#f9f9f9;stop-opacity:0.0;" offset="1.0" />
	</linearGradient>
	<radialGradient spreadMethod="pad" gradientUnits="userSpaceOnUse" cy="776.36084" cx="30.423372" gradientTransform="matrix(-0.0035915476553457573, -0.15524984747464116, 0.052818899242041875, -0.0008940692603457604, -21.050287365981703, 89.49653618756543)" r="202.82248" id="grad8">
		<stop style="stop-color:#ffffff;stop-opacity:0.392156862745;" offset="0.0" />
		<stop style="stop-color:#ffffff;stop-opacity:0.0;" offset="1.0" />
	</radialGradient>
	<linearGradient y2="80.6963867504" spreadMethod="pad" gradientUnits="userSpaceOnUse" x2="7.19715164531" y1="80.6963867504" x1="-1.38201064124" id="grad9">
		<stop style="stop-color:#000000;stop-opacity:0.596078431373;" offset="0.0" />
		<stop style="stop-color:#000000;stop-opacity:0.0;" offset="1.0" />
	</linearGradient>
	<linearGradient y2="87.2884723944" spreadMethod="pad" gradientUnits="userSpaceOnUse" x2="33.1636056157" y1="87.2884723944" x1="41.4154075435" id="grad10">
		<stop style="stop-color:#000000;stop-opacity:0.596078431373;" offset="0.0" />
		<stop style="stop-color:#000000;stop-opacity:0.0;" offset="1.0" />
	</linearGradient>
	<radialGradient spreadMethod="pad" gradientUnits="userSpaceOnUse" cy="365.37674" cx="21.305288" gradientTransform="matrix(-0.0004032370557279445, 0.03156467616748346, -0.14859640081124365, -0.0013723921187783997, 76.38324052935354, 40.02601010137919)" r="202.82248" id="grad11">
		<stop style="stop-color:#000000;stop-opacity:0.596078431373;" offset="0.0" />
		<stop style="stop-color:#000000;stop-opacity:0.0;" offset="1.0" />
	</radialGradient>
	<radialGradient spreadMethod="pad" gradientUnits="userSpaceOnUse" cy="365.37674" cx="21.305288" gradientTransform="matrix(0.0004032370557279445, -0.03156467616748346, 0.14859640081124365, 0.0013723921187783997, -36.3315999571729, 127.95878316563602)" r="202.82248" id="grad12">
		<stop style="stop-color:#000000;stop-opacity:0.596078431373;" offset="0.0" />
		<stop style="stop-color:#000000;stop-opacity:0.0;" offset="1.0" />
	</radialGradient>
	<linearGradient y2="89.4991265272" spreadMethod="pad" gradientUnits="userSpaceOnUse" x2="30.0911869531" y1="89.4991265272" x1="2.46723212434" id="grad13">
		<stop style="stop-color:#f9f9f9;stop-opacity:0.882352941176;" offset="0.0" />
		<stop style="stop-color:#f9f9f9;stop-opacity:0.0;" offset="1.0" />
	</linearGradient>
	<linearGradient y2="77.9421317233" spreadMethod="pad" gradientUnits="userSpaceOnUse" x2="30.5604116104" y1="78.4851018526" x1="42.4347656223" id="grad14">
		<stop style="stop-color:#f9f9f9;stop-opacity:0.882352941176;" offset="0.0" />
		<stop style="stop-color:#f9f9f9;stop-opacity:0.0;" offset="1.0" />
	</linearGradient>
	<radialGradient spreadMethod="pad" gradientUnits="userSpaceOnUse" cy="776.36084" cx="30.423372" gradientTransform="matrix(0.15536011015040443, -0.003591547655345767, 0.0008947042527181683, 0.052818899242041875, 78.501517957736, 66.91261231671295)" r="202.82248" id="grad15">
		<stop style="stop-color:#ffffff;stop-opacity:0.392156862745;" offset="0.0" />
		<stop style="stop-color:#ffffff;stop-opacity:0.0;" offset="1.0" />
	</radialGradient>
	<linearGradient y2="95.160051328" spreadMethod="pad" gradientUnits="userSpaceOnUse" x2="87.3079175011" y1="86.5808890415" x1="87.3079175011" id="grad16">
		<stop style="stop-color:#000000;stop-opacity:0.596078431373;" offset="0.0" />
		<stop style="stop-color:#000000;stop-opacity:0.0;" offset="1.0" />
	</linearGradient>
	<linearGradient y2="121.126505298" spreadMethod="pad" gradientUnits="userSpaceOnUse" x2="80.711149978" y1="129.378307226" x1="80.711149978" id="grad17">
		<stop style="stop-color:#000000;stop-opacity:0.596078431373;" offset="0.0" />
		<stop style="stop-color:#000000;stop-opacity:0.0;" offset="1.0" />
	</linearGradient>
	<radialGradient spreadMethod="pad" gradientUnits="userSpaceOnUse" cy="365.37674" cx="21.305288" gradientTransform="matrix(-0.03158709426135241, -0.0004032370557279425, 0.001373366829090023, -0.14859640081124365, 128.00717936074483, 164.3461402120482)" r="202.82248" id="grad18">
		<stop style="stop-color:#000000;stop-opacity:0.596078431373;" offset="0.0" />
		<stop style="stop-color:#000000;stop-opacity:0.0;" offset="1.0" />
	</radialGradient>
	<radialGradient spreadMethod="pad" gradientUnits="userSpaceOnUse" cy="365.37674" cx="21.305288" gradientTransform="matrix(0.03158709426135241, 0.0004032370557279425, -0.001373366829090023, 0.14859640081124365, 40.01195404289122, 51.63129972552175)" r="202.82248" id="grad19">
		<stop style="stop-color:#000000;stop-opacity:0.596078431373;" offset="0.0" />
		<stop style="stop-color:#000000;stop-opacity:0.0;" offset="1.0" />
	</radialGradient>
	<linearGradient y2="118.054086636" spreadMethod="pad" gradientUnits="userSpaceOnUse" x2="78.4989257784" y1="90.430131807" x1="78.4989257784" id="grad20">
		<stop style="stop-color:#f9f9f9;stop-opacity:0.882352941176;" offset="0.0" />
		<stop style="stop-color:#f9f9f9;stop-opacity:0.0;" offset="1.0" />
	</linearGradient>
	<linearGradient y2="118.523311293" spreadMethod="pad" gradientUnits="userSpaceOnUse" x2="90.0641286751" y1="130.397665305" x1="89.5207729137" id="grad21">
		<stop style="stop-color:#f9f9f9;stop-opacity:0.882352941176;" offset="0.0" />
		<stop style="stop-color:#f9f9f9;stop-opacity:0.0;" offset="1.0" />
	</linearGradient>
	<radialGradient spreadMethod="pad" gradientUnits="userSpaceOnUse" cy="776.36084" cx="30.423372" gradientTransform="matrix(-0.0035915476553457573, -0.15536011015040443, 0.052818899242041875, -0.000894704252718165, 66.92823350294678, 49.51019697849784)" r="202.82248" id="grad22">
		<stop style="stop-color:#ffffff;stop-opacity:0.392156862745;" offset="0.0" />
		<stop style="stop-color:#ffffff;stop-opacity:0.0;" offset="1.0" />
	</radialGradient>
	<linearGradient y2="40.7037974352" spreadMethod="pad" gradientUnits="userSpaceOnUse" x2="95.1756725142" y1="40.7037974352" x1="86.5965102277" id="grad23">
		<stop style="stop-color:#000000;stop-opacity:0.596078431373;" offset="0.0" />
		<stop style="stop-color:#000000;stop-opacity:0.0;" offset="1.0" />
	</linearGradient>
	<linearGradient y2="47.3005649582" spreadMethod="pad" gradientUnits="userSpaceOnUse" x2="121.142126485" y1="47.3005649582" x1="129.393928412" id="grad24">
		<stop style="stop-color:#000000;stop-opacity:0.596078431373;" offset="0.0" />
		<stop style="stop-color:#000000;stop-opacity:0.0;" offset="1.0" />
	</linearGradient>
	<radialGradient spreadMethod="pad" gradientUnits="userSpaceOnUse" cy="365.37674" cx="21.305288" gradientTransform="matrix(-0.0004032370557279445, 0.03158709426135241, -0.14859640081124365, -0.001373366829090032, 164.36176139828203, 0.004535575489001076)" r="202.82248" id="grad25">
		<stop style="stop-color:#000000;stop-opacity:0.596078431373;" offset="0.0" />
		<stop style="stop-color:#000000;stop-opacity:0.0;" offset="1.0" />
	</radialGradient>
	<radialGradient spreadMethod="pad" gradientUnits="userSpaceOnUse" cy="365.37674" cx="21.305288" gradientTransform="matrix(0.0004032370557279445, -0.03158709426135241, 0.14859640081124365, 0.001373366829090032, 51.64692091175558, 87.99976089334261)" r="202.82248" id="grad26">
		<stop style="stop-color:#000000;stop-opacity:0.596078431373;" offset="0.0" />
		<stop style="stop-color:#000000;stop-opacity:0.0;" offset="1.0" />
	</radialGradient>
	<linearGradient y2="49.5127891579" spreadMethod="pad" gradientUnits="userSpaceOnUse" x2="118.069707822" y1="49.5127891579" x1="90.4457529933" id="grad27">
		<stop style="stop-color:#f9f9f9;stop-opacity:0.882352941176;" offset="0.0" />
		<stop style="stop-color:#f9f9f9;stop-opacity:0.0;" offset="1.0" />
	</linearGradient>
	<linearGradient y2="37.9475862611" spreadMethod="pad" gradientUnits="userSpaceOnUse" x2="118.538932479" y1="38.4909420225" x1="130.413286491" id="grad28">
		<stop style="stop-color:#f9f9f9;stop-opacity:0.882352941176;" offset="0.0" />
		<stop style="stop-color:#f9f9f9;stop-opacity:0.0;" offset="1.0" />
	</linearGradient>
</defs>
<g>
	<g>
		<path style="fill:#0169c9;" d="M 2.4922,40.0196 L 85.5109,40.0196 C 86.8875,40.0196 87.9957,38.5717 87.9957,36.7734 L 87.9957,3.2754 C 87.9957,1.477 86.8875,0.0294 85.5109,0.0294 L 2.4922,0.0294 C 1.1156,0.0294 0.0073,1.477 0.0073,3.2754 L 0.0073,36.7734 C 0.0073,38.5717 1.1156,40.0196 2.4922,40.0196 Z" />
		<path style="fill:#ff00ff;" d="M 127.998,2.5329 L 127.998,85.523 C 127.998,86.8992 126.5506,88.007 124.7527,88.007 L 91.2628,88.007 C 89.4649,88.007 88.0175,86.8992 88.0175,85.523 L 88.0175,2.5329 C 88.0175,1.1569 89.4649,0.0489 91.2628,0.0489 L 124.7527,0.0489 C 126.5506,0.0489 127.998,1.1569 127.998,2.5329 Z" />
		<path style="fill:#fdca01;" d="M 42.5002,127.998 L 125.4903,127.998 C 126.8665,127.998 127.9743,126.5506 127.9743,124.7527 L 127.9743,91.2628 C 127.9743,89.4649 126.8665,88.0175 125.4903,88.0175 L 42.5002,88.0175 C 41.1242,88.0175 40.0163,89.4649 40.0163,91.2628 L 40.0163,124.7527 C 40.0163,126.5506 41.1242,127.998 42.5002,127.998 Z" />
		<g>
			<path style="fill:url(#grad1);" d="M 4.6797,2.2425 L 83.7108,2.2425 C 85.1025,2.2425 86.2229,3.5514 86.2229,5.1771 L 86.2229,35.4611 C 86.2229,37.0869 85.1025,38.3958 83.7108,38.3958 L 4.6797,38.3958 C 3.288,38.3958 2.1676,37.0869 2.1676,35.4611 L 2.1676,5.1771 C 2.1676,3.5514 3.288,2.2425 4.6797,2.2425 Z" />
			<g>
				<path style="fill:url(#grad2);" d="M 2.8018,0.0202 L 85.2369,0.0202 C 86.7668,0.0202 87.9984,1.4676 87.9984,3.2655 L 87.9984,36.7554 C 87.9984,38.5533 86.7668,40.0007 85.2369,40.0007 L 2.8018,40.0007 C 1.2719,40.0007 0.0403,38.5533 0.0403,36.7554 L 0.0403,3.2655 C 0.0403,1.4676 1.2719,0.0202 2.8018,0.0202 Z" />
				<path style="fill:url(#grad3);" d="M 85.2369,39.9817 L 2.8018,39.9817 C 1.2719,39.9817 0.0403,38.5342 0.0403,36.7363 L 0.0403,3.2464 C 0.0403,1.4485 1.2719,0.0011 2.8018,0.0011 L 85.2369,0.0011 C 86.7668,0.0011 87.9984,1.4485 87.9984,3.2464 L 87.9984,36.7363 C 87.9984,38.5342 86.7668,39.9817 85.2369,39.9817 Z" />
				<path style="fill:url(#grad4);" d="M 2.8018,0.0146 L 85.2369,0.0146 C 86.7668,0.0146 87.9984,1.462 87.9984,3.2599 L 87.9984,36.7498 C 87.9984,38.5477 86.7668,39.9951 85.2369,39.9951 L 2.8018,39.9951 C 1.2719,39.9951 0.0403,38.5477 0.0403,36.7498 L 0.0403,3.2599 C 0.0403,1.462 1.2719,0.0146 2.8018,0.0146 Z" />
				<path style="fill:url(#grad5);" d="M 85.2369,40.0057 L 2.8018,40.0057 C 1.2719,40.0057 0.0403,38.5583 0.0403,36.7604 L 0.0403,3.2705 C 0.0403,1.4726 1.2719,0.0252 2.8018,0.0252 L 85.2369,0.0252 C 86.7668,0.0252 87.9984,1.4726 87.9984,3.2705 L 87.9984,36.7604 C 87.9984,38.5583 86.7668,40.0057 85.2369,40.0057 Z" />
			</g>
			<g>
				<path style="fill:url(#grad6);" d="M 74.4325,4.6696 C 52.4213,5.4544 30.2918,3.8957 8.2993,5.4983 4.8293,6.5489 4.1585,11.8126 6.1558,14.6547 8.2548,17.6578 12.1666,17.0893 15.2149,17.8858 36.6505,21.4298 58.5045,21.0134 80.0161,18.6832 83.6025,16.4166 83.7474,10.6532 81.5493,7.2377 79.885,4.9708 76.954,4.5758 74.4325,4.6696 Z" />
				<path style="fill:url(#grad7);" d="M 13.6067,36.4614 C 35.6179,36.2375 57.7474,36.6822 79.7399,36.225 83.2099,35.9253 83.8807,34.4236 81.8833,33.6129 79.7844,32.7561 75.8726,32.9183 72.8243,32.6911 51.3887,31.6801 29.5347,31.7988 8.0231,32.4636 4.4367,33.1102 4.2917,34.7544 6.4899,35.7288 8.1542,36.3755 11.0852,36.4882 13.6067,36.4614 Z" />
			</g>
		</g>
		<g>
			<path style="fill:#000000;" d="M 40.0098,42.502 L 40.0098,125.5215 C 40.0098,126.8982 38.5624,128.0064 36.7645,128.0064 L 3.2745,128.0064 C 1.4767,128.0064 0.0293,126.8982 0.0293,125.5215 L 0.0293,42.502 C 0.0293,41.1254 1.4767,40.0171 3.2745,40.0171 L 36.7645,40.0171 C 38.5624,40.0171 40.0098,41.1254 40.0098,42.502 Z" />
			<g>
				<path style="fill:url(#grad8);" d="M 2.2581,123.3041 L 2.2581,44.3291 C 2.2581,42.9384 3.567,41.8188 5.1928,41.8188 L 35.4768,41.8188 C 37.1025,41.8188 38.4114,42.9384 38.4114,44.3291 L 38.4114,123.3041 C 38.4114,124.6948 37.1025,125.8144 35.4768,125.8144 L 5.1928,125.8144 C 3.567,125.8144 2.2581,124.6948 2.2581,123.3041 Z" />
				<g>
					<path style="fill:url(#grad9);" d="M 0.0358,125.1807 L 0.0358,42.8041 C 0.0358,41.2753 1.4832,40.0446 3.2811,40.0446 L 36.771,40.0446 C 38.5689,40.0446 40.0164,41.2753 40.0164,42.8041 L 40.0164,125.1807 C 40.0164,126.7094 38.5689,127.9402 36.771,127.9402 L 3.2811,127.9402 C 1.4832,127.9402 0.0358,126.7094 0.0358,125.1807 Z" />
					<path style="fill:url(#grad10);" d="M 39.9973,42.8041 L 39.9973,125.1807 C 39.9973,126.7094 38.5499,127.9402 36.752,127.9402 L 3.2621,127.9402 C 1.4642,127.9402 0.0168,126.7094 0.0168,125.1807 L 0.0168,42.8041 C 0.0168,41.2753 1.4642,40.0446 3.2621,40.0446 L 36.752,40.0446 C 38.5499,40.0446 39.9973,41.2753 39.9973,42.8041 Z" />
					<path style="fill:url(#grad11);" d="M 0.0302,125.1807 L 0.0302,42.8041 C 0.0302,41.2753 1.4776,40.0446 3.2755,40.0446 L 36.7654,40.0446 C 38.5633,40.0446 40.0107,41.2753 40.0107,42.8041 L 40.0107,125.1807 C 40.0107,126.7094 38.5633,127.9402 36.7654,127.9402 L 3.2755,127.9402 C 1.4776,127.9402 0.0302,126.7094 0.0302,125.1807 Z" />
					<path style="fill:url(#grad12);" d="M 40.0213,42.8041 L 40.0213,125.1807 C 40.0213,126.7094 38.5739,127.9402 36.776,127.9402 L 3.2861,127.9402 C 1.4882,127.9402 0.0408,126.7094 0.0408,125.1807 L 0.0408,42.8041 C 0.0408,41.2753 1.4882,40.0446 3.2861,40.0446 L 36.776,40.0446 C 38.5739,40.0446 40.0213,41.2753 40.0213,42.8041 Z" />
				</g>
				<g>
					<path style="fill:url(#grad13);" d="M 4.6852,53.6008 C 5.47,75.5964 3.9113,97.7102 5.5139,119.6871 6.5645,123.1546 11.8283,123.825 14.6703,121.829 17.6734,119.7315 17.1049,115.8225 17.9014,112.7764 21.4454,91.356 21.0291,69.5175 18.6988,48.0212 16.4322,44.4373 10.6688,44.2925 7.2533,46.4891 4.9864,48.1522 4.5914,51.0811 4.6852,53.6008 Z" />
					<path style="fill:url(#grad14);" d="M 36.477,114.3835 C 36.2531,92.3879 36.6978,70.2741 36.2406,48.2971 35.9409,44.8297 34.4393,44.1593 33.6285,46.1553 32.7718,48.2527 32.9339,52.1617 32.7067,55.2079 31.6957,76.6283 31.8145,98.4668 32.4792,119.9631 33.1258,123.5469 34.77,123.6918 35.7444,121.4952 36.3911,119.8321 36.5038,116.9032 36.477,114.3835 Z" />
				</g>
			</g>
		</g>
		<g>
			<path style="fill:url(#grad15);" d="M 44.67,90.221 L 123.701,90.221 C 125.0927,90.221 126.2131,91.5299 126.2131,93.1557 L 126.2131,123.4396 C 126.2131,125.0654 125.0927,126.3743 123.701,126.3743 L 44.67,126.3743 C 43.2782,126.3743 42.1578,125.0654 42.1578,123.4396 L 42.1578,93.1557 C 42.1578,91.5299 43.2782,90.221 44.67,90.221 Z" />
			<g>
				<path style="fill:url(#grad16);" d="M 42.792,87.9987 L 125.2271,87.9987 C 126.757,87.9987 127.9886,89.4461 127.9886,91.244 L 127.9886,124.7339 C 127.9886,126.5318 126.757,127.9793 125.2271,127.9793 L 42.792,127.9793 C 41.2622,127.9793 40.0306,126.5318 40.0306,124.7339 L 40.0306,91.244 C 40.0306,89.4461 41.2622,87.9987 42.792,87.9987 Z" />
				<path style="fill:url(#grad17);" d="M 125.2271,127.9602 L 42.792,127.9602 C 41.2622,127.9602 40.0306,126.5128 40.0306,124.7149 L 40.0306,91.225 C 40.0306,89.4271 41.2622,87.9797 42.792,87.9797 L 125.2271,87.9797 C 126.757,87.9797 127.9886,89.4271 127.9886,91.225 L 127.9886,124.7149 C 127.9886,126.5128 126.757,127.9602 125.2271,127.9602 Z" />
				<path style="fill:url(#grad18);" d="M 42.792,87.9931 L 125.2271,87.9931 C 126.757,87.9931 127.9886,89.4405 127.9886,91.2384 L 127.9886,124.7283 C 127.9886,126.5262 126.757,127.9736 125.2271,127.9736 L 42.792,127.9736 C 41.2622,127.9736 40.0306,126.5262 40.0306,124.7283 L 40.0306,91.2384 C 40.0306,89.4405 41.2622,87.9931 42.792,87.9931 Z" />
				<path style="fill:url(#grad19);" d="M 125.2271,127.9842 L 42.792,127.9842 C 41.2622,127.9842 40.0306,126.5368 40.0306,124.7389 L 40.0306,91.249 C 40.0306,89.4511 41.2622,88.0037 42.792,88.0037 L 125.2271,88.0037 C 126.757,88.0037 127.9886,89.4511 127.9886,91.249 L 127.9886,124.7389 C 127.9886,126.5368 126.757,127.9842 125.2271,127.9842 Z" />
			</g>
			<g>
				<path style="fill:url(#grad20);" d="M 114.4228,92.6481 C 92.4116,93.4329 70.282,91.8742 48.2895,93.4768 44.8196,94.5274 44.1487,99.7912 46.1461,102.6332 48.245,105.6363 52.1568,105.0678 55.2052,105.8643 76.6407,109.4083 98.4947,108.992 120.0063,106.6617 123.5927,104.3951 123.7377,98.6317 121.5395,95.2162 119.8752,92.9493 116.9442,92.5543 114.4228,92.6481 Z" />
				<path style="fill:url(#grad21);" d="M 53.5969,124.4399 C 75.6081,124.216 97.7376,124.6607 119.7302,124.2035 123.2001,123.9038 123.871,122.4022 121.8736,121.5914 119.7746,120.7347 115.8628,120.8968 112.8145,120.6696 91.3789,119.6586 69.5249,119.7774 48.0133,120.4421 44.4269,121.0887 44.282,122.7329 46.4801,123.7073 48.1444,124.354 51.0754,124.4667 53.5969,124.4399 Z" />
			</g>
		</g>
		<g>
			<path style="fill:url(#grad22);" d="M 90.2366,83.3418 L 90.2366,4.3107 C 90.2366,2.919 91.5455,1.7986 93.1713,1.7986 L 123.4553,1.7986 C 125.0811,1.7986 126.3899,2.919 126.3899,4.3107 L 126.3899,83.3418 C 126.3899,84.7335 125.0811,85.8539 123.4553,85.8539 L 93.1713,85.8539 C 91.5455,85.8539 90.2366,84.7335 90.2366,83.3418 Z" />
			<g>
				<path style="fill:url(#grad23);" d="M 88.0144,85.2197 L 88.0144,2.7846 C 88.0144,1.2547 89.4618,0.0231 91.2597,0.0231 L 124.7496,0.0231 C 126.5475,0.0231 127.9949,1.2547 127.9949,2.7846 L 127.9949,85.2197 C 127.9949,86.7495 126.5475,87.9812 124.7496,87.9812 L 91.2597,87.9812 C 89.4618,87.9812 88.0144,86.7495 88.0144,85.2197 Z" />
				<path style="fill:url(#grad24);" d="M 127.9758,2.7846 L 127.9758,85.2197 C 127.9758,86.7495 126.5284,87.9812 124.7305,87.9812 L 91.2406,87.9812 C 89.4427,87.9812 87.9953,86.7495 87.9953,85.2197 L 87.9953,2.7846 C 87.9953,1.2547 89.4427,0.0231 91.2406,0.0231 L 124.7305,0.0231 C 126.5284,0.0231 127.9758,1.2547 127.9758,2.7846 Z" />
				<path style="fill:url(#grad25);" d="M 88.0087,85.2197 L 88.0087,2.7846 C 88.0087,1.2547 89.4561,0.0231 91.254,0.0231 L 124.7439,0.0231 C 126.5418,0.0231 127.9893,1.2547 127.9893,2.7846 L 127.9893,85.2197 C 127.9893,86.7495 126.5418,87.9812 124.7439,87.9812 L 91.254,87.9812 C 89.4561,87.9812 88.0087,86.7495 88.0087,85.2197 Z" />
				<path style="fill:url(#grad26);" d="M 127.9998,2.7846 L 127.9998,85.2197 C 127.9998,86.7495 126.5524,87.9812 124.7545,87.9812 L 91.2646,87.9812 C 89.4667,87.9812 88.0193,86.7495 88.0193,85.2197 L 88.0193,2.7846 C 88.0193,1.2547 89.4667,0.0231 91.2646,0.0231 L 124.7545,0.0231 C 126.5524,0.0231 127.9998,1.2547 127.9998,2.7846 Z" />
			</g>
			<g>
				<path style="fill:url(#grad27);" d="M 92.6638,13.589 C 93.4485,35.6001 91.8899,57.7297 93.4924,79.7222 94.543,83.1922 99.8068,83.863 102.6489,81.8656 105.6519,79.7667 105.0834,75.8549 105.88,72.8066 109.4239,51.371 109.0076,29.517 106.6773,8.0054 104.4107,4.419 98.6473,4.274 95.2318,6.4722 92.965,8.1365 92.5699,11.0675 92.6638,13.589 Z" />
				<path style="fill:url(#grad28);" d="M 124.4555,74.4148 C 124.2317,52.4036 124.6763,30.2741 124.2191,8.2815 123.9194,4.8116 122.4178,4.1408 121.607,6.1381 120.7503,8.2371 120.9125,12.1489 120.6852,15.1972 119.6742,36.6328 119.793,58.4868 120.4577,79.9984 121.1044,83.5848 122.7486,83.7297 123.7229,81.5316 124.3696,79.8673 124.4823,76.9363 124.4555,74.4148 Z" />
			</g>
		</g>
	</g>
</g>
</svg>